HIERARCHY
ROOT Hips
{
	OFFSET 0.00 0.00 0.00
	CHANNELS 6 Xposition Yposition Zposition Xrotation Yrotation Zrotation
	JOINT Spine
	{
		OFFSET 0.00000 1.70439 2.55658
		CHANNELS 3 Xrotation Yrotation Zrotation
		JOINT Spine1
		{
			OFFSET 0.00000 0.59193 3.35699
			CHANNELS 3 Xrotation Yrotation Zrotation
			JOINT Spine2
			{
				OFFSET 0.00000 0.29710 3.39581
				CHANNELS 3 Xrotation Yrotation Zrotation
				JOINT Spine3
				{
					OFFSET 0.00000 0.00000 3.40878
					CHANNELS 3 Xrotation Yrotation Zrotation
					JOINT Neck
					{
						OFFSET 0.00000 -1.27828 8.94804
						CHANNELS 3 Xrotation Yrotation Zrotation
						JOINT Head
						{
							OFFSET 0.00000 -0.81390 4.61586
							CHANNELS 3 Xrotation Yrotation Zrotation
							End Site
							{
								OFFSET 0.00000 0.00001 5.51796
							}
						}
					}
					JOINT RightShoulder
					{
						OFFSET -1.18875 -1.98124 6.41925
						CHANNELS 3 Xrotation Yrotation Zrotation
						JOINT RightArm
						{
							OFFSET -5.90412 0.00000 0.00000
							CHANNELS 3 Xrotation Yrotation Zrotation
							JOINT RightForeArm
							{
								OFFSET -11.94674 0.00000 0.00000
								CHANNELS 3 Xrotation Yrotation Zrotation
								JOINT RightHand
								{
									OFFSET -10.17720 0.00000 0.00000
									CHANNELS 3 Xrotation Yrotation Zrotation
									JOINT RightHandEnd
									{
										OFFSET -2.84518 0.00000 0.00000
										CHANNELS 3 Xrotation Yrotation Zrotation
										End Site
										{
											OFFSET -2.84518 0.00000 0.00000
										}
									}
									JOINT RightHandThumb1
									{
										OFFSET -1.13807 -1.89679 -0.75871
										CHANNELS 3 Yrotation Xrotation Zrotation
										End Site
										{
											OFFSET -2.74823 -0.73639 0.00000
										}
									}
								}
							}
						}
					}
					JOINT LeftShoulder
					{
						OFFSET 1.18875 -1.98124 6.41925
						CHANNELS 3 Xrotation Yrotation Zrotation
						JOINT LeftArm
						{
							OFFSET 5.90412 0.00000 0.00000
							CHANNELS 3 Xrotation Yrotation Zrotation
							JOINT LeftForeArm
							{
								OFFSET 11.94674 0.00000 0.00000
								CHANNELS 3 Xrotation Yrotation Zrotation
								JOINT LeftHand
								{
									OFFSET 10.17720 0.00000 0.00000
									CHANNELS 3 Xrotation Yrotation Zrotation
									JOINT LeftHandEnd
									{
										OFFSET 2.84518 0.00000 0.00000
										CHANNELS 3 Xrotation Yrotation Zrotation
										End Site
										{
											OFFSET 2.84518 0.00000 0.00000
										}
									}
									JOINT LeftHandThumb1
									{
										OFFSET 1.13807 -1.89679 -0.75871
										CHANNELS 3 Yrotation Xrotation Zrotation
										End Site
										{
											OFFSET 2.74823 -0.73639 0.00000
										}
									}
								}
							}
						}
					}
				}
			}
		}
	}
	JOINT RightUpLeg
	{
		OFFSET -3.52662 0.00000 -1.03025
		CHANNELS 3 Xrotation Yrotation Zrotation
		JOINT RightLeg
		{
			OFFSET 0.00001 0.00000 -17.80159
			CHANNELS 3 Xrotation Yrotation Zrotation
			JOINT RightFoot
			{
				OFFSET 0.00001 0.00000 -16.85992
				CHANNELS 3 Xrotation Yrotation Zrotation
				JOINT RightToeBase
				{
					OFFSET 0.00000 -5.42953 -1.97619
					CHANNELS 3 Xrotation Yrotation Zrotation
					End Site
					{
						OFFSET 0.00000 -2.85300 -0.00000
					}
				}
			}
		}
	}
	JOINT LeftUpLeg
	{
		OFFSET 3.52662 0.00000 -1.03025
		CHANNELS 3 Xrotation Yrotation Zrotation
		JOINT LeftLeg
		{
			OFFSET 0.00001 0.00000 -17.80159
			CHANNELS 3 Xrotation Yrotation Zrotation
			JOINT LeftFoot
			{
				OFFSET 0.00001 0.00000 -16.85992
				CHANNELS 3 Xrotation Yrotation Zrotation
				JOINT LeftToeBase
				{
					OFFSET 0.00000 -5.42953 -1.97619
					CHANNELS 3 Xrotation Yrotation Zrotation
					End Site
					{
						OFFSET 0.00000 -2.85300 -0.00000
					}
				}
			}
		}
	}
}
MOTION
Frames: 10
Frame Time: 0.008342
 -1.4209 -1.3933 38.0843 1.4184 2.1040 -177.7832 0.7688 -0.2781 -0.6399 0.5228 0.1945 -0.0855 0.5230 -1.4568 -1.1866 -0.1771 0.0380 0.3857 -0.5560 0.0675 -1.6869 -2.3233 1.5749 0.5873 -4.2779 10.9937 -3.0408 -3.7579 0.0313 -4.4599 0.0000 0.0000 10.7213 -3.4794 27.1915 -6.5652 0.0000 0.0000 0.0000 -0.0000 -0.0000 0.0000 -9.9498 -9.7676 -3.0921 5.9474 3.0218 2.5880 -0.0000 -0.0000 -12.6023 -5.6250 -23.6213 3.4682 -0.0000 -0.0000 0.0000 -0.0000 0.0000 0.0000 0.8657 6.2076 -37.6262 16.0410 0.0000 0.0000 -15.6192 -2.7785 -3.4903 4.6030 0.0000 0.0000 -0.4278 -0.9700 7.2743 13.7590 0.0000 0.0000 -9.2660 10.9610 4.9295 -5.9928 0.0000 -0.0000
 -1.4418 -1.3969 38.0939 1.4068 1.9874 -177.9477 0.7338 -0.3586 -0.6286 0.5139 0.1605 -0.0882 0.5347 -1.4942 -1.1477 -0.1713 0.0314 0.3869 -0.5723 0.1364 -1.6008 -2.3597 1.5946 0.6206 -4.2630 11.0388 -2.9793 -3.7888 0.0294 -4.4400 0.0000 0.0000 10.6956 -3.4753 27.1798 -6.5677 -0.0000 0.0000 -0.0000 0.0000 -0.0000 -0.0000 -9.9282 -9.6823 -3.0082 6.0067 3.0815 2.5862 -0.0000 -0.0000 -12.5966 -5.6392 -23.6118 3.4592 0.0000 -0.0000 -0.0000 0.0000 -0.0000 0.0000 0.9288 6.0884 -37.6851 15.7868 0.0000 0.0000 -15.3906 -2.8719 -3.2164 4.5690 0.0000 0.0000 -0.4043 -1.0389 7.3687 13.7037 0.0000 0.0000 -9.2684 10.8847 4.9997 -5.9813 0.0000 -0.0000
 -1.4690 -1.4016 38.1057 1.3907 1.8507 -178.1562 0.6902 -0.4491 -0.6164 0.4994 0.1192 -0.0942 0.5507 -1.5383 -1.0958 -0.1647 0.0187 0.3907 -0.5876 0.2166 -1.4956 -2.4088 1.6205 0.6645 -4.2433 11.0995 -2.9035 -3.8237 0.0199 -4.4129 0.0000 0.0000 10.6598 -3.4703 27.1560 -6.5735 0.0000 0.0000 0.0000 0.0000 -0.0000 -0.0000 -9.9013 -9.5806 -2.9094 6.0855 3.1672 2.5860 -0.0000 -0.0000 -12.5813 -5.6519 -23.5775 3.4500 0.0000 0.0000 0.0000 0.0000 0.0000 0.0000 1.0016 5.9574 -37.7855 15.4845 0.0000 0.0000 -15.1066 -2.9971 -2.8539 4.5236 0.0000 0.0000 -0.3683 -1.1153 7.5021 13.6204 0.0000 0.0000 -9.2630 10.7933 5.0740 -5.9645 0.0000 -0.0000
 -1.5018 -1.4072 38.1193 1.3744 1.7012 -178.4050 0.6419 -0.5423 -0.6029 0.4843 0.0762 -0.0986 0.5665 -1.5935 -1.0399 -0.1572 0.0010 0.3989 -0.6007 0.3022 -1.3760 -2.4690 1.6521 0.7203 -4.2196 11.1744 -2.8141 -3.8611 0.0016 -4.3800 0.0000 0.0000 10.6150 -3.4702 27.1171 -6.5802 0.0000 -0.0000 -0.0000 -0.0000 -0.0000 -0.0000 -9.8701 -9.4685 -2.7990 6.1824 3.2804 2.5865 -0.0000 -0.0000 -12.5531 -5.6649 -23.5134 3.4407 -0.0000 0.0000 0.0000 -0.0000 -0.0000 0.0000 1.0844 5.8230 -37.9290 15.1466 0.0000 0.0000 -14.7758 -3.1506 -2.4091 4.4684 0.0000 0.0000 -0.3129 -1.1935 7.6784 13.5050 0.0000 0.0000 -9.2467 10.6906 5.1447 -5.9426 0.0000 -0.0000
 -1.5392 -1.4139 38.1342 1.3551 1.5472 -178.6851 0.5882 -0.6309 -0.5892 0.4677 0.0329 -0.1025 0.5828 -1.6565 -0.9804 -0.1496 -0.0211 0.4107 -0.6106 0.3847 -1.2490 -2.5375 1.6888 0.7881 -4.1941 11.2578 -2.7152 -3.8982 -0.0241 -4.3411 0.0000 0.0000 10.5617 -3.4698 27.0628 -6.5937 0.0000 0.0000 -0.0000 0.0000 -0.0000 0.0000 -9.8377 -9.3514 -2.6837 6.2941 3.4177 2.5882 -0.0000 -0.0000 -12.5101 -5.6776 -23.4136 3.4339 -0.0000 0.0000 0.0000 0.0000 -0.0000 0.0000 1.1681 5.6948 -38.1150 14.7907 0.0000 0.0000 -14.4109 -3.3249 -1.8951 4.4050 0.0000 0.0000 -0.2426 -1.2672 7.8931 13.3592 0.0000 0.0000 -9.2185 10.5809 5.2076 -5.9159 0.0000 -0.0000
 -1.5801 -1.4216 38.1494 1.3349 1.3972 -178.9856 0.5328 -0.7085 -0.5765 0.4506 -0.0072 -0.1045 0.5984 -1.7233 -0.9217 -0.1420 -0.0473 0.4263 -0.6165 0.4551 -1.1215 -2.6118 1.7296 0.8667 -4.1686 11.3428 -2.6122 -3.9326 -0.0557 -4.2967 0.0000 0.0000 10.5020 -3.4686 26.9946 -6.6153 -0.0000 -0.0000 0.0000 -0.0000 -0.0000 0.0000 -9.8064 -9.2362 -2.5710 6.4150 3.5749 2.5920 -0.0000 -0.0000 -12.4513 -5.6905 -23.2760 3.4303 0.0000 0.0000 0.0000 -0.0000 -0.0000 0.0000 1.2485 5.5811 -38.3392 14.4349 0.0000 0.0000 -14.0278 -3.5107 -1.3311 4.3352 0.0000 0.0000 -0.1577 -1.3306 8.1400 13.1858 0.0000 0.0000 -9.1782 10.4687 5.2584 -5.8846 0.0000 -0.0000
 -1.6226 -1.4302 38.1644 1.3145 1.2578 -179.2934 0.4773 -0.7691 -0.5654 0.4344 -0.0426 -0.1057 0.6127 -1.7914 -0.8657 -0.1350 -0.0755 0.4444 -0.6183 0.5044 -1.0027 -2.6880 1.7728 0.9551 -4.1463 11.4214 -2.5104 -3.9604 -0.0903 -4.2481 0.0000 0.0000 10.4391 -3.4678 26.9152 -6.6462 -0.0000 -0.0000 -0.0000 -0.0000 0.0000 0.0000 -9.7789 -9.1288 -2.4684 6.5389 3.7443 2.5990 -0.0000 -0.0000 -12.3780 -5.7034 -23.1014 3.4334 -0.0000 -0.0000 0.0000 0.0000 0.0000 0.0000 1.3204 5.4866 -38.5910 14.0964 0.0000 0.0000 -13.6439 -3.6965 -0.7436 4.2641 0.0000 0.0000 -0.0616 -1.3809 8.4104 12.9909 0.0000 0.0000 -9.1272 10.3592 5.2931 -5.8512 0.0000 -0.0000
 -1.6650 -1.4397 38.1784 1.2978 1.1357 -179.5947 0.4261 -0.8081 -0.5568 0.4208 -0.0697 -0.1074 0.6247 -1.8581 -0.8140 -0.1291 -0.1036 0.4631 -0.6159 0.5245 -0.8999 -2.7627 1.8169 1.0509 -4.1291 11.4853 -2.4159 -3.9799 -0.1251 -4.1960 0.0000 0.0000 10.3763 -3.4674 26.8297 -6.6864 0.0000 -0.0000 -0.0000 -0.0000 -0.0000 0.0000 -9.7581 -9.0351 -2.3831 6.6595 3.9184 2.6100 -0.0000 -0.0000 -12.2915 -5.7197 -22.8951 3.4426 0.0000 -0.0000 -0.0000 0.0000 -0.0000 0.0000 1.3827 5.4162 -38.8605 13.7902 0.0000 0.0000 -13.2768 -3.8709 -0.1585 4.1920 0.0000 0.0000 0.0447 -1.4140 8.6916 12.7811 0.0000 0.0000 -9.0676 10.2561 5.3109 -5.8152 0.0000 -0.0000
 -1.7058 -1.4497 38.1908 1.2892 1.0372 -179.8764 0.3837 -0.8232 -0.5518 0.4118 -0.0830 -0.1092 0.6336 -1.9220 -0.7694 -0.1245 -0.1294 0.4814 -0.6104 0.5092 -0.8200 -2.8314 1.8596 1.1515 -4.1197 11.5274 -2.3341 -3.9864 -0.1572 -4.1416 0.0000 0.0000 10.3172 -3.4644 26.7437 -6.7358 0.0000 0.0000 0.0000 0.0000 -0.0000 -0.0000 -9.7452 -8.9596 -2.3210 6.7703 4.0885 2.6261 -0.0000 -0.0000 -12.1956 -5.7399 -22.6654 3.4596 0.0000 -0.0000 -0.0000 -0.0000 -0.0000 0.0000 1.4366 5.3739 -39.1358 13.5289 0.0000 0.0000 -12.9440 -4.0236 0.3982 4.1236 0.0000 0.0000 0.1611 -1.4263 8.9681 12.5631 0.0000 0.0000 -9.0014 10.1622 5.3147 -5.7787 0.0000 -0.0000
 -1.7436 -1.4600 38.2012 1.2902 0.9636 179.8721 0.3543 -0.8129 -0.5509 0.4038 -0.0881 -0.1076 0.6409 -1.9714 -0.7412 -0.1213 -0.1547 0.5019 -0.6028 0.4549 -0.7689 -2.8924 1.8991 1.2534 -4.1179 11.5407 -2.2716 -3.9796 -0.1833 -4.0855 0.0000 0.0000 10.2664 -3.4588 26.6648 -6.7938 0.0000 -0.0000 -0.0000 -0.0000 0.0000 0.0000 -9.7421 -8.9049 -2.2869 6.8651 4.2464 2.6481 -0.0000 -0.0000 -12.0944 -5.7623 -22.4242 3.4850 0.0000 -0.0000 -0.0000 0.0000 0.0000 0.0000 1.4810 5.3572 -39.3966 13.3190 0.0000 0.0000 -12.6588 -4.1451 0.8963 4.0614 0.0000 0.0000 0.2826 -1.4195 9.2278 12.3473 0.0000 0.0000 -8.9331 10.0793 5.3064 -5.7430 0.0000 -0.0000
